<?xml version="1.0" encoding="utf-8"?>
<!-- Generator: Adobe Illustrator 26.0.3, SVG Export Plug-In . SVG Version: 6.00 Build 0)  -->
<svg version="1.1" id="Шар_1" xmlns="http://www.w3.org/2000/svg" xmlns:xlink="http://www.w3.org/1999/xlink" x="0px" y="0px"
	 viewBox="0 0 221.11 39.13" style="enable-background:new 0 0 221.11 39.13;" xml:space="preserve">
<style type="text/css">
	.st0{fill:#FFFFFF;}
	.st1{fill:none;stroke:#FFFFFF;stroke-miterlimit:10;}
	.st2{fill:#FFFFFF;stroke:#FFFFFF;stroke-miterlimit:10;}
</style>
<g>
	<path class="st0" d="M43.9,25.99c-0.28,0-0.41-0.14-0.41-0.43c0-0.29,0.01-0.59,0.02-0.88c0.01-0.29,0.02-0.59,0.03-0.88
		c0.01-0.59,0.02-1.18,0.03-1.76s0.01-1.17,0.01-1.76c0-1.64-0.02-3.27-0.07-4.9v-0.15c0-0.06,0.01-0.17,0.02-0.35
		c0.02-0.17,0.08-0.26,0.18-0.26c0.09,0,0.19,0.07,0.31,0.2c0.11,0.13,0.19,0.23,0.24,0.29c0.22,0.29,0.44,0.59,0.65,0.89
		c0.21,0.3,0.42,0.6,0.63,0.9c0.43,0.6,0.85,1.2,1.27,1.8c0.42,0.6,0.84,1.21,1.26,1.81c0.18,0.27,0.37,0.53,0.55,0.8
		c0.18,0.27,0.36,0.53,0.55,0.79c0.04,0.05,0.08,0.07,0.11,0.07c0.03,0,0.07-0.02,0.11-0.07c0.32-0.43,0.63-0.87,0.94-1.31
		c0.31-0.44,0.61-0.88,0.92-1.31c0.66-0.92,1.31-1.84,1.97-2.75c0.66-0.91,1.33-1.81,2.01-2.71h0.04c-0.04,1.03-0.07,2.06-0.08,3.1
		c-0.02,1.04-0.03,2.07-0.03,3.1c0,0.59,0,1.18,0.01,1.77s0.02,1.18,0.03,1.78c0,0.3,0.01,0.59,0.03,0.89
		c0.01,0.29,0.02,0.59,0.02,0.89c0,0.29-0.14,0.43-0.41,0.43h-2.26c-0.15,0-0.25-0.03-0.31-0.1s-0.09-0.17-0.11-0.3
		c-0.02-0.15-0.03-0.3-0.02-0.46c0.01-0.16,0.01-0.32,0-0.47c-0.01-0.37-0.01-0.74,0-1.12c0-0.38,0-0.75-0.01-1.12
		c0-0.01,0-0.06-0.01-0.14c-0.01-0.08-0.03-0.13-0.07-0.13c-0.03,0-0.07,0.03-0.11,0.09s-0.06,0.1-0.07,0.11
		c-0.43,0.72-0.85,1.45-1.26,2.17c-0.41,0.73-0.83,1.46-1.25,2.18h-0.04c-0.43-0.66-0.86-1.33-1.28-2c-0.42-0.67-0.86-1.33-1.3-1.99
		c-0.01-0.02-0.03-0.06-0.07-0.1s-0.07-0.07-0.1-0.07c-0.04,0-0.06,0.04-0.06,0.11s-0.01,0.12-0.01,0.13c0,0.31,0,0.62-0.01,0.93
		c-0.01,0.31-0.01,0.62-0.02,0.93c0,0.15,0,0.31,0.01,0.47c0.01,0.16,0,0.32-0.02,0.46c-0.02,0.14-0.05,0.24-0.11,0.3
		s-0.16,0.1-0.31,0.1H43.9z"/>
	<path class="st0" d="M57.1,14.82c0-0.28,0.14-0.42,0.41-0.42h6.91c0.28,0,0.42,0.14,0.42,0.43c0,0.17,0,0.35-0.01,0.52
		s-0.01,0.35-0.02,0.52c0,0.14,0,0.27,0,0.4c0.01,0.13,0,0.27-0.01,0.4c-0.02,0.28-0.16,0.42-0.42,0.42h-4.06
		c-0.09,0-0.14,0.04-0.14,0.13l0.01,1.62c0,0.09,0.04,0.13,0.13,0.13h3.45c0.28,0,0.42,0.14,0.42,0.42v1.56
		c0,0.28-0.14,0.42-0.42,0.42h-3.45c-0.09,0-0.13,0.04-0.13,0.13l-0.01,1.67c0,0.09,0.05,0.13,0.14,0.13h4.25
		c0.26,0,0.4,0.14,0.41,0.41c0.02,0.29,0.03,0.6,0.03,0.93c0.01,0.33,0.01,0.63,0.01,0.93c0,0.29-0.14,0.43-0.42,0.43h-7.09
		c-0.28,0-0.41-0.14-0.41-0.42c0-0.29,0-0.58,0.01-0.87s0.01-0.58,0.02-0.87c0.01-0.61,0.02-1.22,0.02-1.83
		c0-0.61,0.01-1.21,0.01-1.82c0-0.61,0-1.21-0.01-1.82c-0.01-0.61-0.01-1.21-0.02-1.82c-0.01-0.29-0.01-0.58-0.02-0.87
		C57.11,15.39,57.1,15.1,57.1,14.82z"/>
	<path class="st0" d="M66.17,20.21c0-0.78,0.14-1.53,0.42-2.24c0.28-0.71,0.67-1.34,1.18-1.9c0.51-0.55,1.1-0.99,1.78-1.31
		c0.68-0.32,1.43-0.48,2.24-0.48c0.81,0,1.56,0.16,2.25,0.48c0.69,0.32,1.3,0.76,1.82,1.32s0.92,1.19,1.21,1.91
		c0.29,0.72,0.43,1.47,0.43,2.26c0,0.79-0.14,1.53-0.43,2.24s-0.69,1.33-1.21,1.88c-0.51,0.54-1.12,0.97-1.81,1.28
		c-0.69,0.31-1.44,0.47-2.24,0.47c-0.82,0-1.57-0.16-2.25-0.47c-0.69-0.31-1.28-0.74-1.79-1.29c-0.51-0.55-0.9-1.18-1.18-1.89
		C66.31,21.75,66.17,21,66.17,20.21z M71.95,23.42c0.42,0,0.78-0.1,1.08-0.3c0.3-0.2,0.55-0.46,0.74-0.78
		c0.19-0.32,0.33-0.67,0.43-1.04c0.09-0.37,0.14-0.74,0.14-1.1c0-0.5-0.09-1-0.27-1.5s-0.46-0.91-0.83-1.25
		c-0.37-0.33-0.84-0.5-1.41-0.5c-0.55,0-1.02,0.17-1.39,0.5c-0.38,0.33-0.66,0.75-0.85,1.24c-0.19,0.49-0.29,0.99-0.29,1.48
		c0,0.51,0.1,1.01,0.31,1.51c0.21,0.5,0.51,0.91,0.9,1.24S71.38,23.42,71.95,23.42z"/>
	<path class="st0" d="M83.02,26.07c-0.09,0-0.17-0.06-0.23-0.18c-0.06-0.12-0.11-0.22-0.13-0.29c-0.3-0.8-0.59-1.61-0.87-2.41
		c-0.29-0.81-0.58-1.61-0.87-2.41c-0.36-0.97-0.74-1.94-1.12-2.91c-0.38-0.96-0.77-1.93-1.16-2.89c-0.02-0.04-0.03-0.09-0.04-0.13
		c-0.01-0.05-0.02-0.09-0.02-0.14c0-0.13,0.05-0.21,0.15-0.25s0.2-0.05,0.3-0.05h2.41c0.18,0,0.31,0.09,0.39,0.28
		c0.08,0.18,0.15,0.37,0.21,0.57c0.07,0.2,0.13,0.39,0.2,0.58c0.2,0.55,0.39,1.11,0.58,1.66c0.18,0.56,0.38,1.11,0.58,1.66
		c0.01,0.02,0.03,0.06,0.04,0.11c0.02,0.05,0.04,0.07,0.08,0.07c0.03,0,0.06-0.02,0.08-0.07s0.04-0.08,0.04-0.11
		c0.02-0.05,0.06-0.17,0.13-0.37c0.07-0.2,0.15-0.43,0.25-0.7c0.09-0.27,0.19-0.54,0.28-0.8c0.09-0.26,0.17-0.48,0.23-0.66
		s0.09-0.28,0.09-0.29c0-0.04-0.03-0.14-0.1-0.28c-0.07-0.14-0.15-0.31-0.24-0.49c-0.09-0.18-0.17-0.35-0.24-0.52
		s-0.1-0.28-0.1-0.35c0-0.12,0.05-0.2,0.16-0.24c0.11-0.04,0.21-0.05,0.3-0.05h2.12c0.2,0,0.33,0.09,0.39,0.26l1.63,4.17
		c0.01,0.02,0.03,0.06,0.05,0.1c0.02,0.05,0.05,0.07,0.08,0.07c0.03,0,0.06-0.02,0.08-0.07s0.04-0.08,0.04-0.11
		c0.18-0.51,0.35-1.02,0.52-1.54s0.33-1.03,0.51-1.54c0.06-0.17,0.12-0.35,0.18-0.54c0.06-0.18,0.12-0.36,0.2-0.53
		c0.08-0.18,0.21-0.28,0.39-0.28h2.2c0.1,0,0.2,0.02,0.3,0.06c0.1,0.04,0.15,0.12,0.15,0.24c0,0.04-0.01,0.09-0.02,0.13
		c-0.01,0.05-0.03,0.09-0.04,0.13c-0.36,0.95-0.72,1.91-1.07,2.86c-0.35,0.96-0.69,1.92-1.02,2.89c-0.27,0.79-0.54,1.59-0.8,2.39
		c-0.26,0.8-0.53,1.59-0.8,2.38c-0.02,0.07-0.06,0.17-0.13,0.31c-0.06,0.14-0.14,0.2-0.24,0.2c-0.09,0-0.17-0.06-0.24-0.18
		c-0.07-0.12-0.13-0.21-0.16-0.28c-0.32-0.67-0.63-1.34-0.92-2.02c-0.3-0.68-0.59-1.36-0.89-2.03c-0.1-0.24-0.21-0.48-0.31-0.71
		c-0.1-0.24-0.21-0.47-0.32-0.7c-0.01-0.02-0.02-0.05-0.04-0.08c-0.02-0.04-0.05-0.05-0.08-0.05s-0.05,0.02-0.07,0.05
		c-0.02,0.03-0.04,0.06-0.05,0.08c-0.44,0.92-0.88,1.85-1.29,2.79s-0.86,1.87-1.33,2.78c-0.03,0.07-0.08,0.15-0.15,0.26
		C83.19,26.02,83.11,26.07,83.02,26.07z"/>
	<path class="st0" d="M99.22,25.99c-0.28,0-0.41-0.14-0.41-0.43c0-0.29,0.01-0.59,0.02-0.88s0.02-0.59,0.03-0.88
		c0.01-0.59,0.02-1.18,0.03-1.76s0.01-1.17,0.01-1.76c0-1.64-0.02-3.27-0.07-4.9v-0.15c0-0.06,0.01-0.17,0.02-0.35
		c0.02-0.17,0.08-0.26,0.18-0.26c0.09,0,0.19,0.07,0.3,0.2c0.11,0.13,0.19,0.23,0.24,0.29c0.22,0.29,0.44,0.59,0.65,0.89
		c0.21,0.3,0.42,0.6,0.63,0.9c0.43,0.6,0.85,1.2,1.27,1.8c0.42,0.6,0.84,1.21,1.26,1.81c0.18,0.27,0.37,0.53,0.55,0.8
		s0.36,0.53,0.55,0.79c0.04,0.05,0.08,0.07,0.11,0.07c0.03,0,0.07-0.02,0.11-0.07c0.32-0.43,0.63-0.87,0.94-1.31
		c0.31-0.44,0.61-0.88,0.92-1.31c0.66-0.92,1.31-1.84,1.98-2.75c0.66-0.91,1.33-1.81,2.01-2.71h0.04c-0.04,1.03-0.07,2.06-0.09,3.1
		c-0.02,1.04-0.03,2.07-0.03,3.1c0,0.59,0,1.18,0.01,1.77c0.01,0.59,0.02,1.18,0.03,1.78c0,0.3,0.01,0.59,0.03,0.89
		c0.01,0.29,0.02,0.59,0.02,0.89c0,0.29-0.14,0.43-0.42,0.43h-2.26c-0.15,0-0.25-0.03-0.31-0.1c-0.05-0.07-0.09-0.17-0.11-0.3
		c-0.02-0.15-0.03-0.3-0.02-0.46c0.01-0.16,0.01-0.32,0-0.47c-0.01-0.37-0.01-0.74,0-1.12c0-0.38,0-0.75-0.01-1.12
		c0-0.01,0-0.06-0.01-0.14c-0.01-0.08-0.03-0.13-0.07-0.13c-0.03,0-0.07,0.03-0.11,0.09s-0.06,0.1-0.07,0.11
		c-0.43,0.72-0.85,1.45-1.26,2.17c-0.41,0.73-0.83,1.46-1.25,2.18h-0.04c-0.43-0.66-0.86-1.33-1.28-2c-0.42-0.67-0.86-1.33-1.3-1.99
		c-0.01-0.02-0.03-0.06-0.07-0.1s-0.07-0.07-0.1-0.07c-0.04,0-0.06,0.04-0.07,0.11c0,0.08-0.01,0.12-0.01,0.13
		c0,0.31,0,0.62-0.01,0.93c-0.01,0.31-0.01,0.62-0.02,0.93c0,0.15,0,0.31,0.01,0.47c0.01,0.16,0,0.32-0.02,0.46
		c-0.02,0.14-0.05,0.24-0.11,0.3c-0.05,0.07-0.16,0.1-0.31,0.1H99.22z"/>
	<path class="st0" d="M112.29,25.99c-0.09,0-0.19-0.02-0.3-0.05s-0.17-0.11-0.17-0.24c0-0.06,0.01-0.12,0.03-0.17
		s0.04-0.1,0.06-0.15c0.49-1.03,0.98-2.07,1.47-3.1c0.48-1.03,0.96-2.07,1.43-3.11c0.39-0.86,0.78-1.72,1.15-2.58
		s0.77-1.72,1.19-2.56c0.03-0.05,0.07-0.07,0.11-0.07c0.05,0,0.09,0.02,0.11,0.07c0.41,0.84,0.81,1.7,1.19,2.56s0.76,1.72,1.15,2.58
		c0.48,1.05,0.96,2.08,1.44,3.12c0.48,1.03,0.97,2.07,1.47,3.1c0.03,0.05,0.05,0.1,0.07,0.15c0.02,0.05,0.03,0.11,0.03,0.17
		c0,0.12-0.06,0.2-0.17,0.24s-0.21,0.05-0.3,0.05h-2.62c-0.11,0-0.19-0.02-0.24-0.07c-0.05-0.05-0.1-0.12-0.15-0.21
		c-0.1-0.22-0.19-0.45-0.26-0.69c-0.07-0.24-0.15-0.48-0.24-0.7c-0.03-0.06-0.07-0.09-0.12-0.09h-3.15c-0.05,0-0.09,0.02-0.11,0.07
		c-0.01,0-0.01,0.01-0.01,0.02c0,0.01,0,0.02-0.01,0.03c-0.07,0.16-0.13,0.33-0.2,0.49s-0.13,0.33-0.2,0.49
		c-0.03,0.07-0.05,0.13-0.08,0.21c-0.03,0.07-0.06,0.14-0.09,0.21c-0.04,0.09-0.09,0.15-0.15,0.19c-0.05,0.04-0.13,0.07-0.24,0.07
		H112.29z M116.28,21.93h1.62c-0.12-0.37-0.25-0.74-0.38-1.11c-0.13-0.37-0.25-0.73-0.38-1.1c-0.14,0.36-0.28,0.73-0.43,1.1
		C116.58,21.19,116.43,21.56,116.28,21.93z"/>
	<path class="st0" d="M127.86,14.39c0.93,0,1.75,0.13,2.48,0.39c0.73,0.26,1.3,0.69,1.71,1.29c0.42,0.6,0.62,1.41,0.62,2.43
		c0,0.77-0.15,1.48-0.46,2.12c-0.31,0.65-0.8,1.17-1.48,1.56c-0.06,0.04-0.09,0.07-0.09,0.11c0,0.02,0.07,0.13,0.2,0.32
		s0.31,0.42,0.51,0.69c0.21,0.27,0.42,0.55,0.63,0.83s0.41,0.53,0.57,0.75s0.27,0.36,0.32,0.42c0.04,0.05,0.09,0.12,0.13,0.2
		s0.07,0.15,0.07,0.23c0,0.12-0.07,0.19-0.2,0.22c-0.14,0.02-0.24,0.04-0.33,0.04h-2.54c-0.13,0-0.25-0.06-0.35-0.19
		c-0.09-0.12-0.17-0.25-0.25-0.38c-0.08-0.13-0.16-0.26-0.24-0.39c-0.24-0.38-0.47-0.76-0.71-1.15c-0.23-0.39-0.48-0.77-0.73-1.14
		c-0.03-0.04-0.06-0.07-0.11-0.07h-0.43c-0.09,0-0.14,0.05-0.14,0.14c0,0.46,0,0.92-0.01,1.38c-0.01,0.46-0.01,0.92-0.01,1.38
		c0,0.28-0.14,0.41-0.42,0.41h-2.24c-0.28,0-0.42-0.14-0.42-0.43s0-0.58,0.02-0.87s0.02-0.58,0.02-0.87
		c0.01-0.61,0.02-1.21,0.02-1.82c0.01-0.61,0.01-1.21,0.01-1.82c0-0.61,0-1.21-0.01-1.82c0-0.6-0.01-1.21-0.02-1.82
		c0-0.29-0.01-0.58-0.02-0.87c-0.01-0.29-0.02-0.58-0.02-0.87s0.14-0.43,0.42-0.43H127.86z M128.24,20.01
		c0.41,0,0.72-0.14,0.94-0.41c0.22-0.28,0.33-0.61,0.33-0.99s-0.11-0.73-0.32-1.05c-0.21-0.31-0.53-0.47-0.95-0.47h-1.18
		c0.01,0.49,0.01,0.97,0.01,1.46c0,0.49,0,0.98,0,1.46H128.24z"/>
	<path class="st0" d="M137.3,14.39c0.26,0,0.4,0.14,0.42,0.41c0.02,0.21,0.02,0.42,0.02,0.63c-0.01,0.22-0.01,0.43-0.01,0.63
		c0,0.44,0.01,0.89,0.01,1.33c0,0.44,0,0.89,0,1.33c0,0.03,0.01,0.06,0.02,0.09c0.01,0.04,0.04,0.05,0.08,0.05
		c0.03,0,0.06-0.01,0.08-0.02c0.69-0.33,1.27-0.78,1.72-1.34c0.46-0.56,0.8-1.2,1.03-1.93c0.04-0.14,0.08-0.28,0.11-0.42
		c0.03-0.14,0.06-0.28,0.1-0.42c0.06-0.24,0.2-0.36,0.42-0.36h2.19c0.11,0,0.21,0.02,0.29,0.07c0.08,0.05,0.12,0.14,0.12,0.27
		c0,0.03,0,0.07-0.02,0.14c-0.48,2.16-1.61,3.89-3.41,5.18c-0.05,0.04-0.07,0.07-0.07,0.1c0,0.02,0.08,0.15,0.23,0.39
		c0.15,0.24,0.35,0.53,0.59,0.89c0.24,0.36,0.51,0.74,0.79,1.15c0.28,0.41,0.56,0.8,0.82,1.18s0.49,0.71,0.68,0.99
		s0.32,0.46,0.38,0.55c0.04,0.05,0.08,0.12,0.11,0.18c0.04,0.07,0.06,0.14,0.06,0.21c0,0.12-0.06,0.2-0.19,0.23
		c-0.13,0.03-0.23,0.04-0.32,0.04h-2.55c-0.12,0-0.24-0.06-0.33-0.17c-0.14-0.17-0.27-0.35-0.4-0.54c-0.13-0.19-0.26-0.38-0.39-0.56
		c-0.32-0.45-0.64-0.9-0.95-1.36c-0.31-0.46-0.63-0.91-0.96-1.35c-0.01-0.02-0.03-0.05-0.07-0.1c-0.04-0.04-0.07-0.06-0.1-0.06
		c-0.04,0-0.06,0.04-0.07,0.11c0,0.07-0.01,0.12-0.01,0.13l-0.02,3.53c0,0.28-0.14,0.41-0.41,0.41h-2.29
		c-0.28,0-0.42-0.14-0.42-0.43s0-0.58,0.02-0.87c0.01-0.29,0.02-0.58,0.02-0.87c0.01-0.61,0.02-1.21,0.02-1.82
		c0-0.61,0.01-1.21,0.01-1.82c0-0.61,0-1.21-0.01-1.82c-0.01-0.6-0.01-1.21-0.02-1.82c-0.01-0.29-0.01-0.58-0.02-0.87
		c-0.01-0.29-0.02-0.58-0.02-0.87s0.14-0.43,0.42-0.43H137.3z"/>
	<path class="st0" d="M145.52,14.82c0-0.28,0.14-0.42,0.41-0.42h6.91c0.28,0,0.42,0.14,0.42,0.43c0,0.17,0,0.35-0.01,0.52
		s-0.01,0.35-0.02,0.52c0,0.14,0,0.27,0,0.4c0.01,0.13,0,0.27-0.01,0.4c-0.02,0.28-0.16,0.42-0.42,0.42h-4.06
		c-0.09,0-0.14,0.04-0.14,0.13l0.01,1.62c0,0.09,0.04,0.13,0.13,0.13h3.45c0.28,0,0.42,0.14,0.42,0.42v1.56
		c0,0.28-0.14,0.42-0.42,0.42h-3.45c-0.09,0-0.13,0.04-0.13,0.13l-0.01,1.67c0,0.09,0.05,0.13,0.14,0.13h4.25
		c0.26,0,0.4,0.14,0.41,0.41c0.02,0.29,0.03,0.6,0.03,0.93c0.01,0.33,0.01,0.63,0.01,0.93c0,0.29-0.14,0.43-0.42,0.43h-7.09
		c-0.28,0-0.41-0.14-0.41-0.42c0-0.29,0-0.58,0.01-0.87s0.01-0.58,0.02-0.87c0.01-0.61,0.02-1.22,0.02-1.83
		c0-0.61,0.01-1.21,0.01-1.82c0-0.61,0-1.21-0.01-1.82c-0.01-0.61-0.01-1.21-0.02-1.82c-0.01-0.29-0.01-0.58-0.02-0.87
		C145.52,15.39,145.52,15.1,145.52,14.82z"/>
	<path class="st0" d="M154.44,14.83c0-0.29,0.14-0.43,0.42-0.43h7.05c0.28,0,0.42,0.14,0.42,0.43c0,0.19,0,0.38-0.01,0.57
		s-0.01,0.39-0.01,0.58c-0.01,0.11-0.01,0.23,0,0.35c0,0.12,0,0.23-0.01,0.35c-0.02,0.28-0.16,0.42-0.42,0.42h-1.91
		c-0.09,0-0.13,0.04-0.13,0.13c0,0.49,0,0.99,0,1.48c0,0.49,0,0.99,0,1.48c0,0.9,0,1.8,0.01,2.7c0.01,0.9,0.01,1.8,0.01,2.7
		c0,0.28-0.14,0.42-0.42,0.42h-2.24c-0.28,0-0.42-0.14-0.42-0.42c0-0.9,0-1.8,0.01-2.7c0.01-0.9,0.01-1.8,0.01-2.7
		c0-0.49,0-0.99,0-1.48s0-0.99,0-1.48c0-0.09-0.05-0.13-0.14-0.13h-1.76c-0.27,0-0.41-0.14-0.42-0.42c-0.01-0.11-0.01-0.23,0-0.35
		c0-0.12,0-0.23,0-0.35c0-0.19,0-0.39-0.01-0.58C154.44,15.21,154.44,15.01,154.44,14.83z"/>
	<path class="st0" d="M175.51,22.72c0.1,0,0.17,0.04,0.22,0.11c0.05,0.07,0.1,0.14,0.13,0.22c0.03,0.05,0.09,0.17,0.18,0.35
		c0.09,0.18,0.18,0.38,0.28,0.59s0.19,0.41,0.26,0.58c0.07,0.17,0.11,0.27,0.11,0.31c0,0.1-0.05,0.19-0.15,0.27
		c-0.26,0.21-0.59,0.39-0.99,0.53s-0.81,0.25-1.22,0.32c-0.42,0.07-0.79,0.11-1.13,0.11c-1.2,0-2.22-0.26-3.08-0.77
		c-0.85-0.51-1.51-1.22-1.96-2.12c-0.45-0.9-0.68-1.93-0.68-3.1c0-1.11,0.21-2.11,0.62-2.99c0.41-0.88,1.02-1.58,1.82-2.09
		s1.78-0.77,2.94-0.77c0.51,0,1.08,0.07,1.7,0.21c0.62,0.14,1.15,0.35,1.58,0.64c0.06,0.04,0.11,0.08,0.15,0.13s0.06,0.11,0.06,0.18
		c0,0.04-0.04,0.15-0.11,0.34c-0.07,0.19-0.16,0.41-0.26,0.65c-0.1,0.24-0.2,0.47-0.29,0.67c-0.09,0.2-0.15,0.33-0.17,0.39
		c-0.03,0.07-0.07,0.14-0.11,0.2s-0.11,0.09-0.2,0.09c-0.1,0-0.25-0.07-0.43-0.2c-0.19-0.13-0.41-0.27-0.66-0.4
		c-0.25-0.14-0.53-0.2-0.83-0.2c-0.57,0-1.05,0.16-1.44,0.48c-0.39,0.32-0.69,0.72-0.89,1.2c-0.2,0.49-0.3,0.98-0.3,1.5
		c0,0.57,0.1,1.11,0.29,1.61c0.2,0.5,0.5,0.9,0.9,1.21s0.93,0.46,1.56,0.46c0.31,0,0.61-0.05,0.9-0.14
		c0.29-0.09,0.56-0.23,0.82-0.39c0.06-0.04,0.12-0.07,0.18-0.11S175.44,22.72,175.51,22.72z"/>
	<path class="st0" d="M177.9,20.21c0-0.78,0.14-1.53,0.42-2.24c0.28-0.71,0.67-1.34,1.18-1.9c0.51-0.55,1.1-0.99,1.78-1.31
		c0.68-0.32,1.43-0.48,2.24-0.48c0.81,0,1.56,0.16,2.25,0.48c0.69,0.32,1.3,0.76,1.82,1.32s0.92,1.19,1.21,1.91
		c0.29,0.72,0.43,1.47,0.43,2.26c0,0.79-0.14,1.53-0.43,2.24s-0.69,1.33-1.21,1.88c-0.51,0.54-1.12,0.97-1.81,1.28
		c-0.69,0.31-1.44,0.47-2.24,0.47c-0.82,0-1.57-0.16-2.25-0.47c-0.69-0.31-1.28-0.74-1.79-1.29c-0.51-0.55-0.9-1.18-1.18-1.89
		C178.04,21.75,177.9,21,177.9,20.21z M183.68,23.42c0.42,0,0.78-0.1,1.08-0.3c0.3-0.2,0.55-0.46,0.74-0.78
		c0.19-0.32,0.33-0.67,0.43-1.04c0.09-0.37,0.14-0.74,0.14-1.1c0-0.5-0.09-1-0.27-1.5s-0.46-0.91-0.83-1.25
		c-0.37-0.33-0.84-0.5-1.41-0.5c-0.55,0-1.02,0.17-1.39,0.5c-0.38,0.33-0.66,0.75-0.85,1.24c-0.19,0.49-0.29,0.99-0.29,1.48
		c0,0.51,0.1,1.01,0.31,1.51c0.21,0.5,0.51,0.91,0.9,1.24S183.11,23.42,183.68,23.42z"/>
	<path class="st0" d="M194.62,14.39c0.93,0,1.75,0.13,2.48,0.39c0.73,0.26,1.3,0.69,1.71,1.29c0.42,0.6,0.62,1.41,0.62,2.43
		c0,0.77-0.15,1.48-0.46,2.12c-0.31,0.65-0.8,1.17-1.48,1.56c-0.06,0.04-0.09,0.07-0.09,0.11c0,0.02,0.07,0.13,0.2,0.32
		s0.31,0.42,0.51,0.69c0.21,0.27,0.42,0.55,0.63,0.83s0.41,0.53,0.57,0.75s0.27,0.36,0.32,0.42c0.04,0.05,0.09,0.12,0.13,0.2
		s0.07,0.15,0.07,0.23c0,0.12-0.07,0.19-0.2,0.22c-0.14,0.02-0.24,0.04-0.33,0.04h-2.54c-0.13,0-0.25-0.06-0.35-0.19
		c-0.09-0.12-0.17-0.25-0.25-0.38c-0.08-0.13-0.16-0.26-0.24-0.39c-0.24-0.38-0.47-0.76-0.71-1.15c-0.23-0.39-0.48-0.77-0.73-1.14
		c-0.03-0.04-0.06-0.07-0.11-0.07h-0.43c-0.09,0-0.14,0.05-0.14,0.14c0,0.46,0,0.92-0.01,1.38c-0.01,0.46-0.01,0.92-0.01,1.38
		c0,0.28-0.14,0.41-0.42,0.41h-2.24c-0.28,0-0.42-0.14-0.42-0.43s0-0.58,0.02-0.87s0.02-0.58,0.02-0.87
		c0.01-0.61,0.02-1.21,0.02-1.82c0.01-0.61,0.01-1.21,0.01-1.82c0-0.61,0-1.21-0.01-1.82c0-0.6-0.01-1.21-0.02-1.82
		c0-0.29-0.01-0.58-0.02-0.87c-0.01-0.29-0.02-0.58-0.02-0.87s0.14-0.43,0.42-0.43H194.62z M195,20.01c0.41,0,0.72-0.14,0.94-0.41
		c0.22-0.28,0.33-0.61,0.33-0.99s-0.11-0.73-0.32-1.05c-0.21-0.31-0.53-0.47-0.95-0.47h-1.18c0.01,0.49,0.01,0.97,0.01,1.46
		c0,0.49,0,0.98,0,1.46H195z"/>
	<path class="st0" d="M201.34,14.83c0-0.29,0.14-0.43,0.42-0.43h3.89c0.66,0,1.3,0.07,1.92,0.22c0.62,0.15,1.18,0.38,1.67,0.7
		s0.88,0.74,1.17,1.27s0.43,1.16,0.43,1.92c0,0.91-0.2,1.68-0.6,2.3s-0.94,1.09-1.63,1.41c-0.69,0.32-1.47,0.48-2.33,0.48h-1.71
		c-0.09,0-0.13,0.05-0.13,0.14l-0.02,2.74c0,0.28-0.14,0.41-0.42,0.41h-2.24c-0.28,0-0.42-0.14-0.42-0.43c0-0.3,0-0.6,0.02-0.89
		c0.01-0.3,0.02-0.6,0.02-0.89c0.01-0.6,0.02-1.19,0.02-1.79c0.01-0.6,0.01-1.2,0.01-1.79c0-0.6,0-1.19-0.01-1.79
		c0-0.6-0.01-1.19-0.02-1.79c0-0.3-0.01-0.6-0.02-0.89C201.34,15.42,201.34,15.12,201.34,14.83z M204.44,20.01h1.67
		c0.27,0,0.54-0.05,0.79-0.17c0.26-0.11,0.47-0.27,0.64-0.48c0.17-0.21,0.25-0.47,0.25-0.76c0-0.05-0.01-0.11-0.03-0.2
		c-0.02-0.08-0.04-0.15-0.05-0.2c-0.11-0.37-0.32-0.65-0.61-0.83c-0.29-0.19-0.63-0.28-1-0.28h-1.67c0.01,0.49,0.01,0.97,0.01,1.46
		C204.44,19.04,204.44,19.52,204.44,20.01z"/>
	<path class="st0" d="M211.9,24.69c0-0.27,0.09-0.51,0.28-0.71c0.18-0.2,0.41-0.36,0.67-0.46s0.51-0.16,0.75-0.16
		c0.24,0,0.49,0.05,0.75,0.16s0.49,0.26,0.67,0.46c0.18,0.2,0.27,0.44,0.27,0.71c0,0.28-0.09,0.52-0.27,0.71s-0.4,0.34-0.67,0.44
		s-0.52,0.15-0.77,0.15s-0.5-0.05-0.76-0.15c-0.26-0.1-0.48-0.24-0.65-0.43S211.9,24.98,211.9,24.69z"/>
</g>
<rect x="2.88" y="2.84" class="st1" width="33.45" height="33.45"/>
<g>
	<path class="st0" d="M29.4,20.17c-0.02-1.01-0.04-2-0.05-3c-0.02-0.99-0.02-1.98-0.02-2.98c0-1.74,0.01-3.48,0.05-5.22
		c0.03-1.74,0.08-3.47,0.14-5.2h-0.07c-1.14,1.5-2.26,3.02-3.37,4.55c-1.12,1.53-2.22,3.07-3.33,4.62c-0.51,0.73-1.03,1.46-1.55,2.2
		c-0.51,0.74-1.04,1.47-1.57,2.2c-0.07,0.08-0.13,0.12-0.18,0.12c-0.07,0-0.13-0.04-0.19-0.12c-0.31-0.44-0.62-0.88-0.93-1.33
		c-0.3-0.44-0.61-0.89-0.92-1.34c-0.71-1.02-1.42-2.03-2.12-3.05c-0.71-1.01-1.42-2.02-2.14-3.03c-0.36-0.5-0.71-1-1.07-1.51
		c-0.35-0.5-0.72-1-1.09-1.5c-0.08-0.1-0.22-0.26-0.4-0.48c-0.19-0.22-0.36-0.34-0.52-0.34c-0.17,0-0.27,0.15-0.3,0.44
		C9.74,5.48,9.73,5.68,9.73,5.78v0.24c0.08,2.74,0.12,5.49,0.12,8.24c0,1,0,1.98-0.02,2.97c-0.01,0.98-0.03,1.97-0.04,2.96
		c-0.01,0.49-0.03,6.99-0.05,7.49c-0.02,0.39-0.04,0.79-0.04,1.19c0.6-2.94,2.48-5.42,5.04-6.81c0-1.03,0-1.83,0.01-2
		c0.01-0.52,0.01-1.04,0.01-1.56c0-0.02,0-0.09,0.01-0.22c0.01-0.13,0.05-0.19,0.11-0.19s0.11,0.04,0.17,0.12
		c0.06,0.07,0.1,0.13,0.12,0.17c0.63,0.92,1.24,1.85,1.84,2.79c0.8-0.21,1.64-0.32,2.51-0.32c0.81,0,1.59,0.1,2.34,0.28
		c0.63-1.13,1.29-2.26,1.95-3.37c0.01-0.03,0.06-0.09,0.12-0.19c0.06-0.1,0.12-0.15,0.18-0.15s0.1,0.07,0.11,0.21
		c0.01,0.14,0.01,0.22,0.01,0.24c0.02,0.62,0.03,1.25,0.02,1.88v2.29c2.76,1.48,4.75,4.23,5.18,7.47c0.03-0.1,0.05-0.21,0.05-0.35
		c0-0.5-0.01-1-0.04-1.5C29.42,27.17,29.4,20.67,29.4,20.17z"/>
</g>
<path class="st1" d="M13.75,26.1c0.26-0.17,0.92-0.54,1.84-0.55c0.96-0.01,1.65,0.39,1.91,0.55"/>
<path class="st1" d="M21.71,26.1c0.26-0.17,0.92-0.54,1.84-0.55c0.96-0.01,1.65,0.39,1.91,0.55"/>
<path class="st1" d="M19.56,28.81c0,0,0.45,4.19-3.93,4.19"/>
<path class="st1" d="M19.57,28.81c0,0-0.45,4.19,3.93,4.19"/>
<path class="st2" d="M21.19,29.92h-3.3c-0.24,0-0.43-0.2-0.43-0.43v-0.45c0-0.24,0.2-0.43,0.43-0.43h3.3c0.24,0,0.43,0.2,0.43,0.43
	v0.45C21.62,29.72,21.43,29.92,21.19,29.92z"/>
</svg>
